<?xml version="1.0" standalone="no"?>
<!DOCTYPE svg PUBLIC "-//W3C//DTD SVG 20010904//EN"
 "http://www.w3.org/TR/2001/REC-SVG-20010904/DTD/svg10.dtd">
<svg version="1.0" xmlns="http://www.w3.org/2000/svg"
 width="180.000000pt" height="180.000000pt" viewBox="0 0 180.000000 180.000000"
 preserveAspectRatio="xMidYMid meet">

<g transform="translate(0.000000,180.000000) scale(0.100000,-0.100000)"
fill="#000000" stroke="none">
<path d="M698 1761 c-42 -9 -80 -19 -84 -23 -4 -5 -15 -8 -24 -8 -19 0 -163
-70 -168 -82 -2 -5 -10 -8 -18 -8 -8 0 -14 -4 -14 -9 0 -5 -9 -13 -21 -16 -26
-9 -170 -151 -195 -194 -10 -17 -22 -31 -26 -31 -4 0 -8 -7 -8 -15 0 -8 -3
-15 -8 -15 -9 0 -67 -126 -92 -200 -46 -137 -46 -366 0 -520 22 -74 27 -77
122 -67 46 4 97 12 114 18 17 5 47 9 67 9 20 0 39 5 42 10 3 6 17 10 31 10 31
0 153 28 176 41 10 5 27 9 38 9 11 0 28 4 38 9 9 5 44 17 77 27 33 10 64 22
69 26 6 4 18 8 28 8 10 0 18 5 18 10 0 6 7 10 15 10 20 0 158 66 222 107 29
18 57 33 63 33 5 0 10 5 10 10 0 6 5 10 10 10 10 0 22 8 55 38 7 6 17 12 20
12 14 0 213 208 220 229 3 12 11 21 16 21 5 0 9 6 9 14 0 8 4 16 9 18 13 4 81
137 81 156 0 21 -31 60 -96 123 -62 60 -125 108 -141 109 -7 0 -13 5 -13 10 0
6 -7 10 -15 10 -8 0 -15 4 -15 9 0 4 -21 16 -47 26 -27 10 -52 22 -57 26 -6 5
-18 9 -28 9 -10 0 -26 4 -36 9 -72 40 -308 52 -444 22z"/>
<path d="M1565 1296 c-27 -53 -52 -96 -56 -96 -5 0 -9 -5 -9 -11 0 -47 -312
-359 -359 -359 -6 0 -11 -4 -11 -8 0 -5 -16 -17 -35 -28 -19 -10 -35 -22 -35
-26 0 -5 -9 -8 -20 -8 -11 0 -20 -4 -20 -10 0 -5 -6 -10 -14 -10 -8 0 -16 -3
-18 -7 -4 -10 -110 -63 -126 -63 -6 0 -12 -4 -12 -10 0 -5 -7 -10 -15 -10 -13
0 -65 -20 -107 -41 -10 -5 -27 -9 -38 -9 -11 0 -20 -4 -20 -9 0 -5 -12 -11
-27 -14 -16 -3 -55 -13 -88 -22 -33 -9 -71 -19 -85 -22 -14 -2 -34 -8 -45 -13
-21 -9 -27 -10 -180 -34 -88 -14 -125 -24 -125 -33 0 -2 7 -11 15 -20 16 -16
24 -16 188 3 31 4 60 10 63 15 3 5 19 9 36 9 18 0 45 4 62 10 41 12 193 51
229 57 15 3 27 9 27 14 0 5 10 9 23 9 12 1 33 7 47 15 14 8 35 14 48 15 12 0
22 5 22 10 0 6 7 10 15 10 15 0 24 3 82 34 17 9 38 16 47 16 9 0 16 3 16 8 0
4 15 13 33 21 17 8 34 17 37 20 3 3 22 14 42 25 20 10 45 26 55 36 11 9 24 19
30 21 22 8 90 67 158 135 86 87 110 117 137 172 12 23 25 42 30 42 4 0 8 6 8
13 0 7 8 31 19 53 10 21 26 65 36 96 15 51 16 59 2 78 -14 21 -17 18 -62 -74z"/>
<path d="M1640 1287 c0 -20 -4 -38 -9 -41 -4 -3 -11 -19 -14 -35 -11 -51 -87
-202 -118 -231 -9 -8 -18 -20 -20 -27 -6 -16 -76 -97 -124 -143 -85 -81 -130
-120 -139 -120 -5 0 -16 -8 -25 -18 -9 -10 -23 -21 -31 -25 -8 -4 -33 -18 -55
-32 -22 -14 -60 -35 -85 -48 -25 -12 -46 -25 -48 -29 -2 -5 -9 -8 -16 -8 -7 0
-35 -11 -62 -25 -27 -14 -55 -25 -62 -25 -7 0 -21 -4 -32 -10 -11 -5 -29 -14
-40 -20 -11 -5 -28 -10 -38 -10 -10 0 -22 -3 -26 -7 -4 -5 -31 -14 -59 -21
-29 -7 -68 -17 -87 -22 -19 -5 -48 -12 -65 -15 -16 -3 -46 -10 -65 -15 -19 -5
-70 -14 -112 -21 -80 -12 -89 -19 -63 -46 11 -11 28 -13 58 -10 23 3 68 9 100
13 31 3 60 10 63 15 3 5 15 9 27 9 29 0 157 29 179 41 10 5 29 9 43 9 14 0 25
5 25 10 0 6 7 10 16 10 23 0 178 53 182 62 2 5 9 8 16 8 7 0 36 11 64 25 29
14 56 25 62 25 5 0 10 5 10 10 0 6 9 10 20 10 11 0 20 5 20 10 0 6 6 10 13 10
29 0 196 127 285 215 50 51 92 96 92 100 0 3 6 13 13 20 26 30 34 42 60 100
16 33 32 68 38 77 5 10 9 27 9 37 0 11 4 22 9 25 5 3 12 24 15 46 3 22 9 57
12 78 4 30 2 41 -15 56 -21 19 -21 19 -21 -17z"/>
<path d="M1686 1183 c-8 -45 -25 -101 -37 -125 -5 -10 -9 -22 -9 -28 0 -15
-53 -125 -62 -128 -4 -2 -8 -8 -8 -13 0 -12 -52 -93 -62 -97 -5 -2 -8 -8 -8
-14 0 -16 -178 -189 -240 -233 -30 -22 -61 -45 -68 -52 -7 -7 -20 -13 -28 -13
-8 0 -14 -3 -14 -7 0 -5 -10 -13 -23 -19 -12 -6 -44 -23 -72 -37 -76 -40 -181
-86 -212 -93 -15 -4 -32 -10 -38 -14 -5 -3 -30 -12 -55 -19 -25 -8 -62 -20
-83 -27 -20 -8 -48 -14 -62 -14 -13 0 -27 -4 -30 -10 -3 -5 -24 -10 -45 -10
-21 0 -42 -4 -45 -10 -3 -5 -22 -10 -41 -10 -48 0 -79 -17 -61 -33 24 -23 54
-36 63 -27 5 4 27 10 49 13 22 3 72 13 110 22 39 10 85 20 103 22 17 3 32 9
32 14 0 5 11 9 25 9 14 0 33 4 43 9 9 5 40 17 67 26 28 9 59 20 70 25 93 38
228 102 235 110 3 4 28 19 55 35 28 15 52 30 55 34 3 3 18 15 33 24 65 42 247
220 247 242 0 2 16 29 35 59 19 30 35 62 35 71 0 8 5 15 10 15 6 0 10 8 10 18
0 10 4 22 8 27 12 14 40 130 46 190 8 90 -15 145 -28 68z"/>
<path d="M1730 1063 c0 -23 -4 -45 -10 -48 -5 -3 -10 -16 -10 -28 0 -24 -32
-122 -43 -134 -4 -3 -7 -15 -7 -25 0 -10 -3 -18 -8 -18 -4 0 -15 -17 -25 -37
-17 -38 -38 -74 -47 -83 -3 -3 -18 -23 -35 -45 -33 -46 -212 -225 -224 -225
-4 0 -21 -11 -36 -24 -15 -13 -40 -30 -54 -38 -14 -7 -32 -19 -39 -25 -7 -7
-19 -13 -27 -13 -7 0 -15 -3 -17 -7 -4 -11 -147 -83 -164 -83 -8 0 -14 -4 -14
-10 0 -5 -8 -10 -18 -10 -10 0 -22 -4 -28 -9 -5 -4 -34 -16 -64 -27 -30 -10
-59 -22 -64 -26 -6 -4 -19 -8 -31 -8 -12 0 -25 -4 -31 -8 -5 -5 -40 -17 -79
-27 -77 -20 -104 -35 -62 -35 15 0 27 -5 27 -11 0 -15 110 -1 165 21 11 4 61
20 110 36 50 15 97 31 105 35 8 4 40 19 70 33 30 14 58 26 62 26 11 0 173 93
176 102 2 4 8 8 14 8 5 0 26 12 46 28 115 86 215 189 262 270 8 15 20 32 26
38 6 7 21 39 34 71 13 32 27 62 32 68 4 5 8 21 8 35 0 14 5 31 11 37 15 15 16
210 1 225 -9 9 -12 2 -12 -29z"/>
<path d="M1751 808 c-1 -16 -5 -28 -11 -28 -5 0 -10 -7 -10 -15 0 -8 -4 -23
-8 -33 -5 -9 -22 -44 -37 -77 -29 -62 -92 -157 -107 -163 -4 -2 -8 -8 -8 -14
0 -5 -35 -44 -79 -86 -89 -88 -105 -102 -149 -128 -18 -10 -32 -21 -32 -24 0
-3 -25 -18 -55 -35 -30 -16 -55 -33 -55 -37 0 -4 -9 -8 -20 -8 -11 0 -20 -4
-20 -10 0 -5 -5 -10 -10 -10 -6 0 -45 -16 -88 -36 -42 -20 -86 -39 -97 -44
-11 -4 -36 -14 -55 -23 l-35 -16 44 0 c53 -1 225 30 229 41 2 4 12 8 23 8 11
0 27 4 37 9 9 5 43 22 75 37 31 15 57 31 57 36 0 4 6 8 13 8 28 0 157 114 215
190 15 19 29 37 32 40 28 27 110 187 110 214 0 8 4 17 9 20 5 3 11 20 14 38 3
18 11 60 17 92 6 32 9 64 6 70 -2 6 -5 -1 -5 -16z"/>
</g>
</svg>
